<?xml version="1.0" encoding="UTF-8"?>
<svg id="a" data-name="Layer 1" xmlns="http://www.w3.org/2000/svg" viewBox="0 0 137.09 166.72">
  <defs>
    <style>
      .b {
        fill: #4c4c4c;
      }
    </style>
  </defs>
  <path class="b" d="M103.73,141.51H33.36c-3.41,0-33.36-1.08-33.36-38.44,0-19.6,8.28-34,15.58-46.71,5.28-9.18,9.84-17.11,9.84-24.88,0-.21-.02-.42-.05-.63-1.54,1.35-3.57,2.14-5.72,2.14-5.23,0-8.36-4.67-8.36-9.19,0-6.2,5.05-12.61,13.51-12.61s14.6,5.85,16.63,14.74h54.24c2.02-8.89,8.53-14.74,16.63-14.74s13.51,6.41,13.51,12.61c0,4.52-3.13,9.19-8.36,9.19-2.15,0-4.18-.8-5.72-2.14-.03.2-.05.41-.05.63,0,7.77,4.56,15.7,9.84,24.88,7.3,12.7,15.58,27.1,15.58,46.71,0,37.36-29.94,38.44-33.36,38.44ZM25.7,24.66c.58,0,1.14.24,1.54.66.25.26,2.41,2.65,2.41,6.16,0,8.91-4.82,17.29-10.4,27-7.04,12.24-15.02,26.12-15.02,44.59,0,13.51,4.16,23.26,12.38,28.98,6.96,4.84,14.57,5.22,16.74,5.22h70.37c2.17,0,9.78-.38,16.74-5.22,8.21-5.71,12.38-15.46,12.38-28.98,0-18.47-7.98-32.35-15.02-44.59-5.58-9.71-10.4-18.09-10.4-27,0-3.5,2.16-5.89,2.41-6.16.5-.53,1.24-.77,1.96-.62.72.14,1.31.65,1.57,1.33.71,1.88,2.56,2.72,4.07,2.72,2.58,0,4.12-2.52,4.12-4.95,0-4.06-3.25-8.37-9.26-8.37-6.56,0-11.57,5.08-12.78,12.94-.16,1.04-1.05,1.8-2.1,1.8h-57.75c-1.05,0-1.94-.76-2.1-1.8-1.2-7.86-6.22-12.94-12.78-12.94-6.02,0-9.26,4.31-9.26,8.37,0,2.43,1.54,4.95,4.12,4.95,1.51,0,3.36-.84,4.07-2.72.26-.68.85-1.19,1.57-1.33.14-.03.28-.04.42-.04ZM97.52,122.79h-57.96c-7.85,0-14.07-3.29-17.98-9.51-3.01-4.8-4.09-10.51-4.09-14.25,0-12.24,4.75-21.61,9.78-31.53,4.61-9.08,9.37-18.47,10.37-30.57.09-1.1,1.01-1.95,2.11-1.95h57.55c1.1,0,2.02.85,2.11,1.95,1,12.1,5.77,21.49,10.37,30.57,5.03,9.92,9.78,19.29,9.78,31.53,0,3.74-1.07,9.45-4.09,14.25-3.91,6.22-10.13,9.51-17.98,9.51ZM41.69,39.23c-1.38,11.97-6.08,21.23-10.62,30.19-4.8,9.45-9.33,18.38-9.33,29.61,0,3.01.9,7.95,3.44,11.99,3.14,5,7.98,7.53,14.39,7.53h57.96c6.41,0,11.25-2.53,14.39-7.53,2.54-4.04,3.44-8.98,3.44-11.99,0-11.23-4.53-20.16-9.32-29.61-4.55-8.97-9.24-18.22-10.62-30.19h-53.71Z"/>
  <path class="b" d="M67.83,30.18c-1.17,0-2.12-.95-2.12-2.12V2.12c0-1.17.95-2.12,2.12-2.12s2.12.95,2.12,2.12v25.94c0,1.17-.95,2.12-2.12,2.12Z"/>
  <path class="b" d="M67.83,122.79c-1.17,0-2.12-.95-2.12-2.12V37.11c0-1.17.95-2.12,2.12-2.12s2.12.95,2.12,2.12v83.56c0,1.17-.95,2.12-2.12,2.12Z"/>
  <path class="b" d="M83.12,30.18c-1.17,0-2.12-.95-2.12-2.12V10.66c0-1.17.95-2.12,2.12-2.12s2.12.95,2.12,2.12v17.4c0,1.17-.95,2.12-2.12,2.12Z"/>
  <path class="b" d="M83.12,122.79c-1.17,0-2.12-.95-2.12-2.12V37.11c0-1.17.95-2.12,2.12-2.12s2.12.95,2.12,2.12v83.56c0,1.17-.95,2.12-2.12,2.12Z"/>
  <path class="b" d="M52.55,30.18c-1.17,0-2.12-.95-2.12-2.12V10.66c0-1.17.95-2.12,2.12-2.12s2.12.95,2.12,2.12v17.4c0,1.17-.95,2.12-2.12,2.12Z"/>
  <path class="b" d="M52.55,122.79c-1.17,0-2.12-.95-2.12-2.12V37.11c0-1.17.95-2.12,2.12-2.12s2.12.95,2.12,2.12v83.56c0,1.17-.95,2.12-2.12,2.12Z"/>
  <path class="b" d="M98.4,166.72h-59.71c-.69,0-1.34-.34-1.73-.9-.4-.56-.5-1.29-.26-1.94l9.05-25.21c.3-.84,1.1-1.4,2-1.4h41.61c.9,0,1.69.56,2,1.4l9.05,25.21c.23.65.14,1.37-.26,1.94-.4.56-1.04.9-1.73.9ZM41.71,162.48h53.68l-7.53-20.97h-38.62l-7.53,20.97Z"/>
</svg>